<svg width="30" height="27" viewBox="0 0 30 27" fill="none" xmlns="http://www.w3.org/2000/svg">
<path d="M10 26.447C11.1046 26.447 12 25.5516 12 24.447C12 23.3425 11.1046 22.447 10 22.447C8.89543 22.447 8 23.3425 8 24.447C8 25.5516 8.89543 26.447 10 26.447Z" fill="#040406"/>
<path d="M23 26.447C24.1046 26.447 25 25.5516 25 24.447C25 23.3425 24.1046 22.447 23 22.447C21.8954 22.447 21 23.3425 21 24.447C21 25.5516 21.8954 26.447 23 26.447Z" fill="#040406"/>
<path fill-rule="evenodd" clip-rule="evenodd" d="M3.09962 0.447022C3.53426 0.446709 3.95719 0.587998 4.30437 0.849514C4.65174 1.11116 4.90435 1.47891 5.02394 1.89702L6.03903 5.44702H28.1332C28.4529 5.44702 28.7533 5.59984 28.9415 5.85822C29.1297 6.11659 29.183 6.44938 29.085 6.75364L25.3695 18.2875C25.1902 18.9093 24.8137 19.4562 24.2965 19.8458C23.7746 20.2389 23.1383 20.4501 22.4849 20.447C22.4839 20.447 22.4828 20.447 22.4817 20.447L22.4875 19.447V20.447H22.4849H10.5151C10.5161 20.447 10.5172 20.447 10.5183 20.447L10.5125 19.447V20.447H10.5151C9.86174 20.4501 9.22539 20.2389 8.7035 19.8458C8.18143 19.4526 7.80274 18.899 7.62546 18.2699L7.62603 18.2719L8.5875 17.997L7.62476 18.2674L3.10106 2.44702L0 2.44702V0.447022H3.09962ZM3.09962 0.447022C3.09984 0.447022 3.09939 0.447022 3.09962 0.447022ZM6.61091 7.44702L9.55025 17.7266C9.60874 17.9349 9.73402 18.1182 9.90681 18.2483C10.0796 18.3785 10.2904 18.4483 10.5067 18.447L10.5125 18.447L22.4933 18.447C22.7096 18.4483 22.9204 18.3785 23.0932 18.2483C23.266 18.1182 23.3913 17.9349 23.4498 17.7266C23.4532 17.7145 23.4568 17.7024 23.4607 17.6904L26.7604 7.44702H6.61091Z" fill="#040406"/>
</svg>
