<svg width="29" height="25" viewBox="0 0 29 25" fill="none" xmlns="http://www.w3.org/2000/svg">
<path fill-rule="evenodd" clip-rule="evenodd" d="M18.2087 0.975986C19.156 0.599125 20.1703 0.419376 21.1894 0.447724C22.2086 0.476072 23.2113 0.71192 24.1362 1.14086C25.0608 1.56963 25.8883 2.18234 26.5682 2.94157C29.3199 6.00168 28.842 10.6914 26.0328 13.5148L26.031 13.5166L15.906 23.6416L15.1989 22.9344L15.9026 23.6449C15.5257 24.0182 15.0168 24.2276 14.4864 24.2276C13.956 24.2276 13.447 24.0182 13.0702 23.6449L13.0668 23.6416L2.67927 13.2541C1.9586 12.5329 1.39228 11.672 1.01542 10.7247C0.638553 9.77732 0.458805 8.76307 0.487153 7.74391C0.5155 6.72474 0.751349 5.72206 1.18029 4.79711C1.60906 3.87254 2.22177 3.04505 2.981 2.36518C6.04111 -0.386542 10.7309 0.0913568 13.5542 2.90057L13.5587 2.90502L14.4868 3.8402L15.677 2.64217L15.6795 2.63958C16.4007 1.91891 17.2613 1.35285 18.2087 0.975986ZM14.4952 22.224C14.4953 22.2238 14.4951 22.2241 14.4952 22.224L24.615 12.1041C24.6152 12.1039 24.6155 12.1036 24.6157 12.1034C26.7806 9.92694 27.0276 6.44289 25.0804 4.27822L25.0788 4.27643C24.5801 3.71935 23.9731 3.2698 23.2948 2.95525C22.6165 2.64069 21.8812 2.46774 21.1338 2.44695C20.3864 2.42616 19.6426 2.55798 18.9479 2.83434C18.2537 3.1105 17.6231 3.5252 17.0944 4.05313C17.094 4.05352 17.0936 4.05392 17.0932 4.05432L15.1958 5.96423C15.008 6.15325 14.7526 6.25952 14.4861 6.25945C14.2197 6.25938 13.9643 6.15298 13.7766 5.96386L12.1414 4.31623C9.96491 2.15266 6.48186 1.90616 4.31765 3.85292L4.31586 3.85453C3.75879 4.35321 3.30923 4.96024 2.99468 5.63853C2.68012 6.31682 2.50717 7.05213 2.48638 7.79952C2.46559 8.5469 2.59741 9.29068 2.87377 9.98541C3.15014 10.6801 3.56525 11.3112 4.09374 11.8401L14.4776 22.224C14.4777 22.2241 14.4775 22.2238 14.4776 22.224C14.4799 22.2261 14.4832 22.2276 14.4864 22.2276C14.4895 22.2276 14.4929 22.2261 14.4952 22.224Z" fill="#040406"/>
</svg>
