<svg width="25" height="20" viewBox="0 0 25 20" fill="none" xmlns="http://www.w3.org/2000/svg">
<path fill-rule="evenodd" clip-rule="evenodd" d="M0.819275 15.4568C0.819275 14.9045 1.26699 14.4568 1.81927 14.4568H13.8193C14.3716 14.4568 14.8193 14.9045 14.8193 15.4568C14.8193 16.0091 14.3716 16.4568 13.8193 16.4568H1.81927C1.26699 16.4568 0.819275 16.0091 0.819275 15.4568Z" fill="#040406"/>
<path fill-rule="evenodd" clip-rule="evenodd" d="M16.8193 15.4568C16.8193 14.9045 17.267 14.4568 17.8193 14.4568H23.8193C24.3716 14.4568 24.8193 14.9045 24.8193 15.4568C24.8193 16.0091 24.3716 16.4568 23.8193 16.4568H17.8193C17.267 16.4568 16.8193 16.0091 16.8193 15.4568Z" fill="#040406"/>
<path fill-rule="evenodd" clip-rule="evenodd" d="M0.819275 4.45679C0.819275 3.9045 1.26699 3.45679 1.81927 3.45679H5.81927C6.37156 3.45679 6.81927 3.9045 6.81927 4.45679C6.81927 5.00907 6.37156 5.45679 5.81927 5.45679H1.81927C1.26699 5.45679 0.819275 5.00907 0.819275 4.45679Z" fill="#040406"/>
<path fill-rule="evenodd" clip-rule="evenodd" d="M8.81927 4.45679C8.81927 3.9045 9.26699 3.45679 9.81927 3.45679H23.8193C24.3716 3.45679 24.8193 3.9045 24.8193 4.45679C24.8193 5.00907 24.3716 5.45679 23.8193 5.45679H9.81927C9.26699 5.45679 8.81927 5.00907 8.81927 4.45679Z" fill="#040406"/>
<path fill-rule="evenodd" clip-rule="evenodd" d="M9.81927 0.456787C10.3716 0.456787 10.8193 0.904502 10.8193 1.45679V7.45679C10.8193 8.00907 10.3716 8.45679 9.81927 8.45679C9.26699 8.45679 8.81927 8.00907 8.81927 7.45679V1.45679C8.81927 0.904502 9.26699 0.456787 9.81927 0.456787Z" fill="#040406"/>
<path fill-rule="evenodd" clip-rule="evenodd" d="M17.8193 11.4568C18.3716 11.4568 18.8193 11.9045 18.8193 12.4568V18.4568C18.8193 19.0091 18.3716 19.4568 17.8193 19.4568C17.267 19.4568 16.8193 19.0091 16.8193 18.4568V12.4568C16.8193 11.9045 17.267 11.4568 17.8193 11.4568Z" fill="#040406"/>
</svg>
