<svg width="16" height="17" viewBox="0 0 16 17" fill="none" xmlns="http://www.w3.org/2000/svg">
<g clip-path="url(#clip0_707_1470)">
<path d="M13.8867 7.39062V5.42188H12.9023V7.39062H10.9336V8.375H12.9023V10.3438H13.8867V8.375H15.8555V7.39062H13.8867Z" fill="#040406"/>
<path d="M5.02734 7.39062V9.35938H7.81214C7.40559 10.5052 6.31097 11.3281 5.02734 11.3281C3.39919 11.3281 2.07422 10.0032 2.07422 8.375C2.07422 6.74684 3.39919 5.42188 5.02734 5.42188C5.73314 5.42188 6.41236 5.67486 6.93998 6.13456L8.23345 4.65013C7.34752 3.87838 6.20958 3.45312 5.02734 3.45312C2.31342 3.45312 0.105469 5.66108 0.105469 8.375C0.105469 11.0889 2.31342 13.2969 5.02734 13.2969C7.74127 13.2969 9.94922 11.0889 9.94922 8.375V7.39062H5.02734Z" fill="#040406"/>
</g>
<defs>
<clipPath id="clip0_707_1470">
<rect width="15.75" height="15.75" fill="white" transform="translate(0.105469 0.5)"/>
</clipPath>
</defs>
</svg>
