<svg width="48" height="46" viewBox="0 0 48 46" fill="none" xmlns="http://www.w3.org/2000/svg">
<path d="M13.6367 27.9293C13.0273 27.9293 12.4841 27.8246 12.0071 27.6153C11.5331 27.4061 11.1561 27.1152 10.8761 26.7428C10.5991 26.3674 10.4483 25.9319 10.4236 25.4364H11.587C11.6116 25.7411 11.7163 26.0042 11.9009 26.2258C12.0856 26.4443 12.3272 26.6136 12.6257 26.7336C12.9242 26.8536 13.2551 26.9136 13.6182 26.9136C14.0245 26.9136 14.3846 26.8429 14.6985 26.7013C15.0124 26.5597 15.2586 26.3627 15.4371 26.1104C15.6156 25.858 15.7049 25.5656 15.7049 25.2332C15.7049 24.8855 15.6187 24.5792 15.4464 24.3146C15.274 24.0468 15.0217 23.8375 14.6893 23.6867C14.3569 23.5359 13.9506 23.4605 13.4705 23.4605H12.7134V22.4449H13.4705C13.846 22.4449 14.1753 22.3772 14.4584 22.2418C14.7447 22.1063 14.9678 21.9155 15.1278 21.6693C15.291 21.4231 15.3725 21.1338 15.3725 20.8014C15.3725 20.4813 15.3017 20.2028 15.1602 19.9658C15.0186 19.7289 14.8185 19.5442 14.56 19.4119C14.3046 19.2795 14.003 19.2134 13.6552 19.2134C13.3289 19.2134 13.0212 19.2734 12.7319 19.3934C12.4457 19.5104 12.2118 19.6812 12.0302 19.9058C11.8486 20.1274 11.7501 20.3952 11.7347 20.7091H10.6268C10.6452 20.2136 10.7945 19.7796 11.0746 19.4072C11.3546 19.0318 11.7209 18.7394 12.1733 18.5301C12.6288 18.3208 13.1289 18.2162 13.6736 18.2162C14.2584 18.2162 14.7601 18.3347 15.1786 18.5717C15.5972 18.8056 15.9188 19.1149 16.1435 19.4996C16.3681 19.8843 16.4805 20.2998 16.4805 20.746C16.4805 21.2785 16.3404 21.7324 16.0604 22.1079C15.7834 22.4834 15.4064 22.7434 14.9293 22.8881V22.9619C15.5264 23.0604 15.9927 23.3143 16.3281 23.7237C16.6636 24.1299 16.8313 24.6331 16.8313 25.2332C16.8313 25.7472 16.6913 26.2089 16.4112 26.6182C16.1342 27.0244 15.7557 27.3445 15.2756 27.5784C14.7954 27.8123 14.2492 27.9293 13.6367 27.9293Z" fill="#9D9D9D"/>
<path d="M21.8587 27.9293C21.4709 27.9231 21.0831 27.8492 20.6953 27.7077C20.3075 27.5661 19.9536 27.3276 19.6335 26.9921C19.3134 26.6536 19.0565 26.1965 18.8626 25.621C18.6687 25.0424 18.5717 24.3161 18.5717 23.442C18.5717 22.6049 18.6502 21.8632 18.8072 21.2169C18.9641 20.5675 19.1919 20.0212 19.4904 19.5781C19.7889 19.1318 20.149 18.7933 20.5707 18.5624C20.9954 18.3316 21.474 18.2162 22.0064 18.2162C22.5357 18.2162 23.0066 18.3224 23.419 18.5347C23.8345 18.744 24.1731 19.0364 24.4347 19.4119C24.6963 19.7873 24.8655 20.2197 24.9425 20.7091H23.816C23.7114 20.2844 23.5083 19.932 23.2067 19.6519C22.9051 19.3719 22.505 19.2318 22.0064 19.2318C21.2739 19.2318 20.6968 19.5504 20.2752 20.1874C19.8566 20.8245 19.6458 21.7186 19.6428 22.8696H19.7166C19.889 22.608 20.0936 22.3849 20.3306 22.2002C20.5707 22.0125 20.8353 21.8678 21.1246 21.7663C21.4139 21.6647 21.7202 21.6139 22.0433 21.6139C22.585 21.6139 23.0805 21.7493 23.5298 22.0202C23.9792 22.2879 24.3392 22.6588 24.6101 23.1327C24.8809 23.6036 25.0163 24.1438 25.0163 24.7531C25.0163 25.3379 24.8855 25.8734 24.6239 26.3597C24.3623 26.8429 23.9945 27.2276 23.5206 27.5138C23.0497 27.7969 22.4957 27.9354 21.8587 27.9293ZM21.8587 26.9136C22.2464 26.9136 22.5942 26.8167 22.902 26.6228C23.2128 26.4289 23.4575 26.1688 23.636 25.8426C23.8176 25.5164 23.9084 25.1532 23.9084 24.7531C23.9084 24.3623 23.8207 24.0068 23.6452 23.6867C23.4729 23.3636 23.2344 23.1066 22.9297 22.9158C22.6281 22.725 22.2834 22.6295 21.8956 22.6295C21.6032 22.6295 21.3308 22.688 21.0785 22.805C20.8261 22.9188 20.6045 23.0758 20.4137 23.2759C20.226 23.4759 20.0782 23.7052 19.9705 23.9637C19.8628 24.2192 19.8089 24.4885 19.8089 24.7716C19.8089 25.1471 19.8967 25.4979 20.0721 25.8242C20.2506 26.1504 20.4937 26.4135 20.8015 26.6136C21.1123 26.8136 21.4647 26.9136 21.8587 26.9136Z" fill="#9D9D9D"/>
<path d="M29.9156 27.9293C29.22 27.9293 28.6276 27.74 28.1382 27.3614C27.6489 26.9798 27.2749 26.4274 27.0164 25.7041C26.7579 24.9778 26.6286 24.1007 26.6286 23.0727C26.6286 22.051 26.7579 21.1784 27.0164 20.4552C27.278 19.7289 27.6535 19.1749 28.1428 18.7933C28.6353 18.4086 29.2262 18.2162 29.9156 18.2162C30.605 18.2162 31.1943 18.4086 31.6837 18.7933C32.1761 19.1749 32.5516 19.7289 32.8101 20.4552C33.0717 21.1784 33.2025 22.051 33.2025 23.0727C33.2025 24.1007 33.0732 24.9778 32.8147 25.7041C32.5562 26.4274 32.1823 26.9798 31.6929 27.3614C31.2036 27.74 30.6111 27.9293 29.9156 27.9293ZM29.9156 26.9136C30.605 26.9136 31.1405 26.5813 31.5221 25.9165C31.9037 25.2517 32.0945 24.3038 32.0945 23.0727C32.0945 22.2541 32.0068 21.557 31.8314 20.9815C31.6591 20.4059 31.4098 19.9674 31.0835 19.6658C30.7604 19.3642 30.3711 19.2134 29.9156 19.2134C29.2323 19.2134 28.6984 19.5504 28.3136 20.2244C27.9289 20.8953 27.7366 21.8447 27.7366 23.0727C27.7366 23.8914 27.8228 24.5869 27.9951 25.1594C28.1675 25.7318 28.4152 26.1673 28.7384 26.4658C29.0646 26.7644 29.457 26.9136 29.9156 26.9136Z" fill="#9D9D9D"/>
<path d="M36.0093 19.9151C35.6954 19.9151 35.4107 19.8458 35.1553 19.7073C34.9029 19.5688 34.7013 19.3811 34.5505 19.1441C34.4028 18.9071 34.3289 18.6409 34.3289 18.3455C34.3289 18.05 34.4028 17.7792 34.5505 17.533C34.7013 17.2867 34.9029 17.0898 35.1553 16.942C35.4107 16.7943 35.6954 16.7205 36.0093 16.7205C36.3232 16.7205 36.6048 16.7943 36.8541 16.942C37.1065 17.0898 37.305 17.2867 37.4497 17.533C37.5974 17.7792 37.6712 18.05 37.6712 18.3455C37.6712 18.6409 37.5974 18.9071 37.4497 19.1441C37.305 19.3811 37.1065 19.5688 36.8541 19.7073C36.6048 19.8458 36.3232 19.9151 36.0093 19.9151ZM36.0093 19.2134C36.2678 19.2134 36.4802 19.1241 36.6464 18.9456C36.8126 18.7671 36.8957 18.567 36.8957 18.3455C36.8957 18.1146 36.8126 17.9069 36.6464 17.7222C36.4802 17.5345 36.2678 17.4406 36.0093 17.4406C35.7508 17.4406 35.5384 17.5345 35.3722 17.7222C35.206 17.9069 35.123 18.1146 35.123 18.3455C35.123 18.567 35.206 18.7671 35.3722 18.9456C35.5384 19.1241 35.7508 19.2134 36.0093 19.2134Z" fill="#9D9D9D"/>
<path fill-rule="evenodd" clip-rule="evenodd" d="M24.0039 1.00171C19.5628 1.00171 15.4333 2.32929 11.9887 4.60913L11.4368 3.77523C15.04 1.3904 19.3606 0.00170898 24.0039 0.00170898C36.5951 0.00170898 46.8023 10.2089 46.8023 22.8001C46.8023 26.0456 46.1238 29.1338 44.9007 31.9296L46.7586 30.9055L47.2413 31.7812L43.3442 33.9294L42.9716 29.6902L43.9677 29.6027L44.1111 31.2335C45.2003 28.6398 45.8023 25.7907 45.8023 22.8001C45.8023 10.7612 36.0428 1.00171 24.0039 1.00171ZM4.80155 11.2129L5.74719 15.8538L4.76732 16.0534L4.25796 13.5537C2.94139 16.3603 2.20557 19.4937 2.20557 22.8001C2.20557 34.839 11.965 44.5984 24.0039 44.5984C28.7611 44.5984 33.161 43.0751 36.7444 40.4896L37.3295 41.3005C33.5815 44.0049 28.9781 45.5984 24.0039 45.5984C11.4127 45.5984 1.20557 35.3912 1.20557 22.8001C1.20557 19.5082 1.90352 16.3784 3.15973 13.5514L1.20972 14.8886L0.644165 14.0639L4.80155 11.2129Z" fill="#9D9D9D"/>
</svg>
