<svg width="27" height="27" viewBox="0 0 27 27" fill="none" xmlns="http://www.w3.org/2000/svg">
<path fill-rule="evenodd" clip-rule="evenodd" d="M12.2281 2.44702C6.98144 2.44702 2.72815 6.70032 2.72815 11.947C2.72815 17.1937 6.98144 21.447 12.2281 21.447C17.4749 21.447 21.7281 17.1937 21.7281 11.947C21.7281 6.70032 17.4749 2.44702 12.2281 2.44702ZM0.728149 11.947C0.728149 5.59575 5.87687 0.447021 12.2281 0.447021C18.5794 0.447021 23.7281 5.59575 23.7281 11.947C23.7281 18.2983 18.5794 23.447 12.2281 23.447C5.87687 23.447 0.728149 18.2983 0.728149 11.947Z" fill="#040406"/>
<path fill-rule="evenodd" clip-rule="evenodd" d="M18.9462 18.665C19.3367 18.2744 19.9699 18.2744 20.3604 18.665L26.4354 24.74C26.826 25.1305 26.826 25.7637 26.4354 26.1542C26.0449 26.5447 25.4117 26.5447 25.0212 26.1542L18.9462 20.0792C18.5557 19.6887 18.5557 19.0555 18.9462 18.665Z" fill="#040406"/>
</svg>
