<svg width="14" height="13" viewBox="0 0 14 13" fill="none" xmlns="http://www.w3.org/2000/svg">
<path d="M0.348951 5.75495L3.52528 6.94046L4.75471 10.8943C4.83337 11.1475 5.14303 11.2411 5.34856 11.0731L7.1191 9.62971C7.30469 9.47849 7.56904 9.47096 7.76299 9.61175L10.9564 11.9302C11.1763 12.09 11.4878 11.9696 11.5429 11.7039L13.8823 0.451202C13.9425 0.160983 13.6573 -0.081126 13.381 0.0257532L0.345229 5.05454C0.023535 5.17861 0.0263379 5.63406 0.348951 5.75495ZM4.55657 6.30938L10.7643 2.48604C10.8759 2.41753 10.9906 2.56838 10.8948 2.65725L5.77167 7.41948C5.59159 7.58711 5.47543 7.81144 5.44253 8.05492L5.26801 9.34823C5.2449 9.5209 5.00233 9.53804 4.95468 9.37092L4.28349 7.01255C4.20662 6.74356 4.31865 6.45624 4.55657 6.30938Z" fill="#040406"/>
</svg>
