<svg width="16" height="13" viewBox="0 0 16 13" fill="none" xmlns="http://www.w3.org/2000/svg">
<path d="M15.3296 2.14106C14.7969 2.37712 14.2253 2.53721 13.6247 2.60868C14.2379 2.24146 14.7074 1.65899 14.9298 0.967066C14.3546 1.30714 13.7197 1.55407 13.0431 1.68794C12.5013 1.10999 11.7307 0.75 10.876 0.75C9.23621 0.75 7.90664 2.07957 7.90664 3.71846C7.90664 3.9509 7.93287 4.17792 7.98353 4.39501C5.51616 4.27108 3.32826 3.08895 1.86393 1.29266C1.60796 1.73044 1.46234 2.24053 1.46234 2.78504C1.46234 3.81524 1.98694 4.72423 2.78288 5.25604C2.29627 5.23977 1.8386 5.1059 1.43794 4.8834V4.92048C1.43794 6.35858 2.4618 7.55881 3.81939 7.83197C3.57066 7.8989 3.30837 7.93599 3.03703 7.93599C2.84529 7.93599 2.65987 7.91699 2.47807 7.88081C2.85612 9.06114 3.95235 9.91947 5.25117 9.943C4.23545 10.7389 2.95472 11.212 1.56366 11.212C1.32399 11.212 1.08791 11.1975 0.855469 11.1713C2.16966 12.0152 3.72987 12.5072 5.40675 12.5072C10.8688 12.5072 13.8545 7.98303 13.8545 4.05946L13.8445 3.67506C14.4279 3.25898 14.9326 2.7362 15.3296 2.14106Z" fill="#040406"/>
</svg>
