<svg width="16" height="10" viewBox="0 0 16 10" fill="none" xmlns="http://www.w3.org/2000/svg">
<path d="M15.3203 8.19401C15.3019 8.15444 15.2848 8.12162 15.2689 8.09532C15.0058 7.6215 14.5031 7.03992 13.761 6.35041L13.7453 6.33462L13.7374 6.32687L13.7295 6.31894H13.7215C13.3847 5.99787 13.1715 5.78198 13.0821 5.67146C12.9187 5.46091 12.8821 5.2478 12.9714 5.03186C13.0345 4.86871 13.2716 4.52416 13.682 3.99775C13.8979 3.71876 14.0688 3.49516 14.1951 3.32671C15.1057 2.11609 15.5005 1.34249 15.3794 1.0056L15.3324 0.926872C15.3007 0.879476 15.2192 0.836117 15.0877 0.796574C14.956 0.757114 14.7876 0.750588 14.5823 0.776886L12.3086 0.792592C12.2718 0.77954 12.2192 0.780757 12.1507 0.796574C12.0822 0.812391 12.048 0.820328 12.048 0.820328L12.0084 0.840099L11.977 0.863852C11.9507 0.879559 11.9217 0.907184 11.8901 0.946671C11.8587 0.98602 11.8324 1.0322 11.8114 1.08482C11.5638 1.72168 11.2824 2.3138 10.9665 2.86115C10.7718 3.18753 10.5929 3.47039 10.4296 3.70989C10.2664 3.9493 10.1296 4.12569 10.0191 4.23876C9.90854 4.35194 9.80871 4.44262 9.71907 4.51111C9.62956 4.57963 9.56123 4.60859 9.51391 4.59799C9.46649 4.5874 9.42183 4.5769 9.37955 4.56639C9.30591 4.51899 9.24668 4.45453 9.20202 4.37296C9.15717 4.29139 9.12698 4.18871 9.11119 4.06502C9.09548 3.94125 9.08619 3.83479 9.08353 3.74528C9.08107 3.65588 9.0822 3.52943 9.08754 3.36628C9.09302 3.20305 9.09548 3.0926 9.09548 3.0347C9.09548 2.83466 9.09938 2.61756 9.1072 2.38335C9.11517 2.14913 9.12161 1.96356 9.127 1.82684C9.13237 1.68999 9.13486 1.54521 9.13486 1.39256C9.13486 1.23992 9.12556 1.12022 9.1072 1.03333C9.08906 0.94656 9.06122 0.862331 9.02452 0.780674C8.98761 0.6991 8.93357 0.635997 8.86267 0.5912C8.79163 0.546459 8.70331 0.510953 8.59821 0.484573C8.31922 0.421443 7.96397 0.387292 7.53229 0.381983C6.55337 0.371475 5.92437 0.434688 5.64541 0.571539C5.53488 0.62936 5.43486 0.708363 5.34544 0.808298C5.25067 0.924134 5.23745 0.987348 5.30587 0.997745C5.62171 1.04506 5.84531 1.15824 5.9769 1.33718L6.02433 1.432C6.06122 1.50041 6.09805 1.62153 6.13491 1.79518C6.17172 1.96884 6.19547 2.16094 6.20592 2.37137C6.23219 2.75566 6.23219 3.08461 6.20592 3.35826C6.17957 3.63202 6.15468 3.84513 6.13093 3.99777C6.10717 4.15041 6.07167 4.2741 6.02433 4.36881C5.9769 4.46355 5.94535 4.52145 5.92954 4.54247C5.91375 4.56348 5.90058 4.57673 5.89013 4.58193C5.82172 4.60814 5.75057 4.6215 5.67693 4.6215C5.60318 4.6215 5.51376 4.58461 5.40851 4.51089C5.30329 4.43717 5.19409 4.33591 5.08091 4.20694C4.96773 4.07794 4.84009 3.89767 4.69793 3.66611C4.55588 3.43455 4.40849 3.16088 4.25585 2.84509L4.12956 2.61607C4.05062 2.46874 3.94277 2.25421 3.80592 1.97268C3.66899 1.69104 3.54795 1.41861 3.44273 1.15545C3.40068 1.04492 3.33749 0.960774 3.25329 0.90287L3.21377 0.879116C3.1875 0.8581 3.14533 0.835785 3.08749 0.812004C3.02955 0.788251 2.96911 0.771217 2.90589 0.760736L0.742679 0.776443C0.521626 0.776443 0.37164 0.826521 0.292665 0.92654L0.261058 0.973853C0.245269 1.00021 0.237305 1.04229 0.237305 1.10022C0.237305 1.15813 0.253094 1.22919 0.284701 1.31334C0.60049 2.05553 0.943905 2.77131 1.31494 3.46079C1.68598 4.15028 2.00841 4.70567 2.28203 5.12649C2.5557 5.5476 2.83466 5.94505 3.1189 6.31863C3.40314 6.69235 3.59128 6.93185 3.68334 7.03707C3.7755 7.14248 3.8479 7.22129 3.90052 7.27391L4.09793 7.46336C4.22425 7.5897 4.40974 7.74101 4.65449 7.9173C4.89929 8.09369 5.17031 8.26735 5.46769 8.43854C5.76512 8.60946 6.11113 8.74894 6.50592 8.85681C6.90066 8.9648 7.28486 9.00813 7.65858 8.98722H8.56652C8.75065 8.97132 8.89016 8.91342 8.98498 8.81348L9.01639 8.77391C9.03752 8.7425 9.05729 8.69369 9.07554 8.62802C9.09401 8.56223 9.10319 8.48976 9.10319 8.41092C9.0978 8.18464 9.11503 7.9807 9.15441 7.79914C9.19376 7.61763 9.23861 7.48078 9.28877 7.38861C9.3389 7.29653 9.39548 7.21883 9.45844 7.15584C9.52155 7.0927 9.56651 7.05446 9.59289 7.0413C9.6191 7.02805 9.64004 7.01907 9.65583 7.01367C9.78214 6.97159 9.9308 7.01235 10.102 7.13615C10.2731 7.25984 10.4336 7.41256 10.5837 7.59407C10.7337 7.77574 10.9139 7.97957 11.1244 8.20585C11.335 8.43221 11.5192 8.60048 11.677 8.71117L11.8349 8.80591C11.9403 8.86912 12.0771 8.92702 12.2456 8.97964C12.4138 9.03224 12.5611 9.0454 12.6876 9.0191L14.7086 8.98758C14.9085 8.98758 15.0641 8.95448 15.1744 8.88881C15.285 8.82302 15.3506 8.75055 15.3718 8.67171C15.3929 8.59279 15.3941 8.50325 15.3758 8.40315C15.3571 8.3033 15.3387 8.23347 15.3203 8.19401Z" fill="#040406"/>
</svg>
