<svg width="47" height="47" viewBox="0 0 47 47" fill="none" xmlns="http://www.w3.org/2000/svg">
<path fill-rule="evenodd" clip-rule="evenodd" d="M23.0365 45.8366C35.2069 45.8366 45.073 35.9705 45.073 23.8001C45.073 11.6296 35.2069 1.76355 23.0365 1.76355C10.8661 1.76355 1 11.6296 1 23.8001C1 35.9705 10.8661 45.8366 23.0365 45.8366ZM23.0365 46.8366C35.7592 46.8366 46.073 36.5228 46.073 23.8001C46.073 11.0773 35.7592 0.76355 23.0365 0.76355C10.3138 0.76355 0 11.0773 0 23.8001C0 36.5228 10.3138 46.8366 23.0365 46.8366Z" fill="#9D9D9D"/>
<path fill-rule="evenodd" clip-rule="evenodd" d="M17.0364 22.3C17.0364 22.0239 17.2602 21.8 17.5364 21.8H25.5364C25.8125 21.8 26.0364 22.0239 26.0364 22.3C26.0364 22.5762 25.8125 22.8 25.5364 22.8H17.5364C17.2602 22.8 17.0364 22.5762 17.0364 22.3Z" fill="#9D9D9D"/>
<path fill-rule="evenodd" clip-rule="evenodd" d="M21.5364 17.8C21.8125 17.8 22.0364 18.0239 22.0364 18.3V26.3C22.0364 26.5762 21.8125 26.8 21.5364 26.8C21.2602 26.8 21.0364 26.5762 21.0364 26.3V18.3C21.0364 18.0239 21.2602 17.8 21.5364 17.8Z" fill="#9D9D9D"/>
<path fill-rule="evenodd" clip-rule="evenodd" d="M21.5364 12.3C16.0135 12.3 11.5364 16.7772 11.5364 22.3C11.5364 27.8229 16.0135 32.3 21.5364 32.3C27.0592 32.3 31.5364 27.8229 31.5364 22.3C31.5364 16.7772 27.0592 12.3 21.5364 12.3ZM10.5364 22.3C10.5364 16.2249 15.4612 11.3 21.5364 11.3C27.6115 11.3 32.5364 16.2249 32.5364 22.3C32.5364 28.3752 27.6115 33.3 21.5364 33.3C15.4612 33.3 10.5364 28.3752 10.5364 22.3Z" fill="#9D9D9D"/>
<path fill-rule="evenodd" clip-rule="evenodd" d="M28.6079 29.3715C28.8031 29.1763 29.1197 29.1763 29.315 29.3715L35.39 35.4465C35.5852 35.6418 35.5852 35.9584 35.39 36.1537C35.1947 36.3489 34.8781 36.3489 34.6829 36.1537L28.6079 30.0787C28.4126 29.8834 28.4126 29.5668 28.6079 29.3715Z" fill="#9D9D9D"/>
</svg>
